<?xml version="1.0" standalone="no"?>
<!DOCTYPE svg PUBLIC "-//W3C//DTD SVG 20010904//EN"
 "http://www.w3.org/TR/2001/REC-SVG-20010904/DTD/svg10.dtd">
<svg version="1.0" xmlns="http://www.w3.org/2000/svg"
 width="250.000000pt" height="37.000000pt" viewBox="0 0 250.000000 37.000000"
 preserveAspectRatio="xMidYMid meet">
<metadata>
Created by potrace 1.16, written by Peter Selinger 2001-2019
</metadata>
<g transform="translate(0.000000,37.000000) scale(0.100000,-0.100000)"
fill="#000000" stroke="none">
<path d="M2166 335 c-9 -9 -16 -22 -16 -30 0 -7 -14 -18 -31 -24 -35 -12 -34
-33 2 -41 19 -5 25 -13 27 -40 10 -144 29 -170 122 -170 47 0 60 3 60 15 0 11
-11 15 -38 15 -63 0 -76 17 -80 104 l-4 76 67 0 c58 0 66 2 63 18 -2 13 -17
19 -57 24 -57 7 -67 12 -73 42 -4 26 -22 30 -42 11z"/>
<path d="M130 261 c0 -14 8 -21 28 -23 l27 -3 0 -85 c0 -81 -1 -84 -24 -90
-14 -3 -26 -11 -29 -18 -3 -9 22 -12 97 -12 83 0 101 3 101 15 0 11 -12 15
-50 15 l-51 0 6 38 c15 89 59 142 119 142 19 0 26 5 26 20 0 16 -7 20 -35 20
-20 0 -50 -7 -67 -16 -29 -15 -32 -15 -43 0 -8 11 -27 16 -59 16 -39 0 -46 -3
-46 -19z"/>
<path d="M544 261 c-45 -27 -64 -59 -64 -106 0 -89 74 -142 187 -133 62 5 114
24 121 47 4 11 -2 12 -24 7 -116 -29 -229 -10 -222 36 3 22 7 23 131 26 108 2
127 5 127 18 0 29 -44 96 -72 110 -41 21 -146 18 -184 -5z"/>
<path d="M964 266 c-37 -16 -47 -37 -34 -70 9 -25 62 -49 135 -61 50 -8 95
-31 95 -49 0 -17 -43 -36 -80 -36 -16 0 -52 9 -80 20 -28 11 -59 20 -70 20
-19 0 -36 -32 -26 -49 3 -5 57 -12 120 -16 87 -6 120 -4 141 6 40 20 51 42 39
76 -11 31 -62 55 -157 74 -36 6 -61 17 -64 26 -15 39 80 58 138 27 44 -22 73
-15 77 19 l3 27 -103 0 c-64 -1 -115 -6 -134 -14z"/>
<path d="M1363 235 c-36 -38 -43 -52 -43 -84 0 -125 205 -179 298 -79 35 38
39 88 11 138 -31 56 -62 70 -150 70 l-72 0 -44 -45z m176 1 c35 -18 61 -57 61
-90 0 -32 -54 -86 -88 -88 -103 -6 -157 43 -131 119 20 62 97 90 158 59z"/>
<path d="M1770 261 c0 -10 8 -21 19 -24 36 -9 36 -165 0 -174 -11 -3 -19 -12
-19 -19 0 -11 22 -14 101 -14 76 0 100 3 97 13 -3 6 -22 13 -44 15 -58 5 -68
36 -38 112 18 44 40 61 94 70 50 8 55 40 5 40 -19 0 -51 -7 -71 -15 -31 -13
-36 -13 -41 0 -3 10 -20 15 -54 15 -41 0 -49 -3 -49 -19z"/>
</g>
</svg>
