<?xml version="1.0" standalone="no"?>
<!DOCTYPE svg PUBLIC "-//W3C//DTD SVG 20010904//EN"
 "http://www.w3.org/TR/2001/REC-SVG-20010904/DTD/svg10.dtd">
<svg version="1.0" xmlns="http://www.w3.org/2000/svg"
 width="200.000000pt" height="200.000000pt" viewBox="0 0 200.000000 200.000000"
 preserveAspectRatio="xMidYMid meet">

<g transform="translate(0.000000,200.000000) scale(0.100000,-0.100000)"
fill="#000000" stroke="none">
<path d="M1743 1079 c-13 -5 -23 -17 -23 -28 0 -13 -8 -21 -22 -23 -34 -5 -37
-38 -4 -38 25 0 26 -2 26 -59 0 -84 23 -111 96 -111 41 0 54 4 54 15 0 10 -10
15 -31 15 -57 0 -69 14 -69 80 l0 60 56 0 c47 0 55 3 52 18 -2 13 -15 18 -55
20 -49 3 -52 5 -55 31 -3 25 -6 27 -25 20z"/>
<path d="M1781 1054 c0 -11 3 -14 6 -6 3 7 2 16 -1 19 -3 4 -6 -2 -5 -13z"/>
<path d="M100 1010 c0 -15 7 -20 25 -20 24 0 25 -2 25 -70 0 -68 -1 -70 -25
-70 -16 0 -25 -6 -25 -15 0 -12 16 -15 85 -15 69 0 85 3 85 15 0 11 -11 15
-41 15 l-42 0 7 48 c7 55 41 92 87 92 22 0 29 5 29 20 0 25 -41 27 -84 5 -35
-18 -36 -18 -36 0 0 11 -12 15 -45 15 -38 0 -45 -3 -45 -20z"/>
<path d="M433 1011 c-39 -24 -53 -49 -53 -94 0 -71 74 -116 169 -103 54 7 98
33 83 48 -8 8 -20 7 -42 -2 -65 -27 -160 -6 -160 35 0 12 19 15 105 15 l105 0
0 25 c0 14 -13 39 -29 57 -24 27 -36 32 -87 35 -46 3 -66 0 -91 -16z m131 -32
c14 -11 26 -25 26 -30 0 -5 -36 -9 -80 -9 -44 0 -80 4 -80 9 0 18 53 51 80 51
15 0 39 -9 54 -21z"/>
<path d="M459 963 c-12 -16 -12 -17 1 -7 8 7 24 14 35 17 19 4 19 5 -1 6 -12
0 -28 -7 -35 -16z"/>
<path d="M528 973 c7 -3 16 -2 19 1 4 3 -2 6 -13 5 -11 0 -14 -3 -6 -6z"/>
<path d="M769 1015 c-32 -17 -39 -33 -28 -61 8 -23 44 -38 116 -49 22 -4 49
-13 60 -21 17 -14 17 -14 -1 -29 -27 -21 -72 -19 -123 6 -51 25 -73 20 -73
-16 0 -23 4 -25 38 -24 20 1 60 -2 87 -6 72 -10 125 12 125 54 0 39 -28 58
-107 72 -78 14 -95 24 -69 44 25 19 77 19 102 0 10 -8 29 -15 42 -15 18 0 22
6 22 28 l0 28 -82 2 c-55 1 -92 -4 -109 -13z"/>
<path d="M1124 1021 c-33 -15 -74 -70 -74 -101 0 -37 41 -86 86 -100 21 -7 54
-9 81 -5 97 14 136 107 74 177 -25 28 -35 32 -87 35 -32 1 -68 -1 -80 -6z
m134 -56 c28 -33 28 -57 -1 -91 -40 -46 -139 -33 -153 21 -22 89 92 141 154
70z"/>
<path d="M1131 954 c-12 -15 -21 -32 -21 -38 1 -6 8 2 16 17 8 15 25 32 37 37
16 6 18 9 5 9 -9 1 -26 -11 -37 -25z"/>
<path d="M1190 976 c0 -2 11 -6 25 -8 13 -3 22 -1 19 3 -5 9 -44 13 -44 5z"/>
<path d="M1120 891 c0 -6 4 -13 10 -16 6 -3 7 1 4 9 -7 18 -14 21 -14 7z"/>
<path d="M1410 1010 c0 -13 7 -20 20 -20 18 0 20 -7 20 -70 0 -63 -2 -70 -20
-70 -11 0 -20 -7 -20 -15 0 -12 16 -15 85 -15 69 0 85 3 85 15 0 11 -11 15
-40 15 -39 0 -40 1 -40 36 0 64 33 103 88 104 25 0 32 4 32 20 0 16 -7 20 -30
20 -17 0 -44 -7 -60 -15 -27 -14 -30 -14 -30 0 0 11 -11 15 -45 15 -38 0 -45
-3 -45 -20z"/>
<path d="M330 996 c0 -13 -6 -27 -12 -29 -8 -3 -6 -6 5 -6 12 -1 17 7 17 29 0
17 -2 30 -5 30 -3 0 -5 -11 -5 -24z"/>
<path d="M980 986 c0 -30 -4 -35 -27 -39 -26 -4 -26 -4 5 -6 31 -1 32 0 32 39
0 22 -2 40 -5 40 -3 0 -5 -15 -5 -34z"/>
<path d="M1630 996 c0 -13 -6 -27 -12 -29 -8 -3 -6 -6 5 -6 12 -1 17 7 17 29
0 17 -2 30 -5 30 -3 0 -5 -11 -5 -24z"/>
<path d="M1890 1001 c0 -17 -8 -20 -52 -23 l-53 -3 -1 -50 -1 -50 4 48 4 47
55 0 c51 0 54 1 54 25 0 14 -2 25 -5 25 -3 0 -5 -9 -5 -19z"/>
<path d="M636 985 c24 -39 24 -40 24 -28 0 6 -9 21 -21 34 l-20 24 17 -30z"/>
<path d="M833 983 c9 -2 23 -2 30 0 6 3 -1 5 -18 5 -16 0 -22 -2 -12 -5z"/>
<path d="M278 973 c7 -3 16 -2 19 1 4 3 -2 6 -13 5 -11 0 -14 -3 -6 -6z"/>
<path d="M226 948 c-9 -12 -15 -38 -15 -58 1 -34 2 -33 9 9 4 25 15 50 25 57
10 8 14 14 7 14 -6 0 -18 -10 -26 -22z"/>
<path d="M1337 935 c7 -49 13 -58 13 -19 0 16 -5 36 -10 44 -6 10 -7 2 -3 -25z"/>
<path d="M1536 951 c-10 -11 -16 -26 -13 -33 4 -9 6 -7 6 4 1 9 11 24 23 32
12 9 18 16 12 16 -6 0 -19 -9 -28 -19z"/>
<path d="M662 915 c0 -16 2 -22 5 -12 2 9 2 23 0 30 -3 6 -5 -1 -5 -18z"/>
<path d="M770 900 c8 -5 24 -10 34 -10 26 0 18 6 -19 14 -22 5 -26 4 -15 -4z"/>
<path d="M1511 884 c0 -11 3 -14 6 -6 3 7 2 16 -1 19 -3 4 -6 -2 -5 -13z"/>
<path d="M455 880 c3 -5 8 -10 11 -10 2 0 4 5 4 10 0 6 -5 10 -11 10 -5 0 -7
-4 -4 -10z"/>
<path d="M843 883 c9 -2 23 -2 30 0 6 3 -1 5 -18 5 -16 0 -22 -2 -12 -5z"/>
<path d="M987 861 c-8 -39 -37 -54 -117 -62 l-65 -6 60 -1 c70 -2 121 22 131
63 3 14 4 28 2 31 -3 2 -8 -9 -11 -25z"/>
<path d="M1322 860 c-21 -34 -64 -55 -127 -61 l-60 -6 54 -1 c38 -2 64 4 90
19 34 19 68 56 59 65 -2 1 -9 -6 -16 -16z"/>
<path d="M1590 820 c0 -17 -8 -20 -87 -23 l-88 -3 93 -2 92 -2 0 25 c0 14 -2
25 -5 25 -3 0 -5 -9 -5 -20z"/>
<path d="M1880 821 c0 -17 -8 -21 -52 -24 l-53 -3 58 -2 c55 -2 57 -1 57 23 0
14 -2 25 -5 25 -3 0 -5 -9 -5 -19z"/>
<path d="M290 817 c0 -13 -15 -17 -87 -20 l-88 -3 88 -2 c71 -2 89 1 94 13 3
9 3 19 -1 22 -3 4 -6 -1 -6 -10z"/>
<path d="M610 815 c-14 -8 -20 -14 -14 -15 5 0 19 7 30 15 24 18 16 19 -16 0z"/>
<path d="M765 800 l-30 -8 27 -1 c15 0 30 4 33 9 3 6 5 9 3 9 -2 -1 -16 -5
-33 -9z"/>
<path d="M488 793 c17 -2 47 -2 65 0 17 2 3 4 -33 4 -36 0 -50 -2 -32 -4z"/>
</g>
</svg>
